<svg width="76" height="64" viewBox="0 0 76 64" fill="none" xmlns="http://www.w3.org/2000/svg">
<g clip-path="url(#clip0_9_259)">
<path d="M67.894 14.8451C68.4619 20.6586 67.894 26.9392 66.2934 32.1817C65.7771 33.9465 65.1576 35.3998 64.4347 36.9051C62.163 41.5247 58.9619 44.691 54.9864 46.1444C53.9538 46.5077 52.8179 46.7672 51.682 46.923C51.0108 47.0268 50.5978 47.0268 50.3913 47.0268C49.875 46.923 49.307 46.7153 48.894 46.4039C48.0163 45.781 47.5 45.0543 47.2418 44.12C47.1385 43.6529 47.1385 43.601 47.1385 41.4728C47.1385 39.5004 47.1385 39.5004 47.1385 39.5004C47.1902 39.5004 47.1902 39.5004 47.1902 39.5004C47.1902 39.4485 47.3967 39.3447 47.6032 39.2409C47.7065 39.1371 47.8097 39.0852 47.913 38.9813C48.1195 38.8256 48.3261 38.6699 48.5326 38.5142C48.6358 38.4623 48.7391 38.3585 48.8424 38.2547C48.894 38.2028 48.9456 38.1509 49.0489 38.0989C49.6168 37.5799 50.1847 37.0089 50.7527 36.3861C50.7527 36.3341 50.8043 36.3341 50.8559 36.2822C50.9592 36.1784 51.0625 36.0746 51.1141 35.9189C51.4755 35.5036 51.7853 35.0884 52.0434 34.6732C52.0434 34.6732 52.0434 34.6731 52.0434 34.6212C52.1467 34.4655 52.25 34.3098 52.3532 34.1022C52.7663 33.4274 53.1277 32.7007 53.3858 31.974C53.4375 31.8702 53.4891 31.7664 53.4891 31.6626C53.5407 31.5588 53.5924 31.455 53.644 31.3512C53.644 31.2993 53.644 31.2474 53.6956 31.1955C53.6956 31.0916 53.7472 30.9878 53.7472 30.884C53.7989 30.8321 53.7989 30.8321 53.7989 30.8321C53.7989 30.7283 53.8505 30.6245 53.8505 30.5207C53.9022 30.4688 53.9022 30.365 53.9022 30.313C53.9538 30.2092 54.0054 30.0535 54.0054 29.9497C54.057 29.6902 54.1087 29.3787 54.1603 29.0673C54.1603 29.0673 54.2119 29.0154 54.2119 28.9635C54.2119 28.8597 54.2636 28.704 54.2636 28.5482C54.2636 28.3925 54.3152 28.2368 54.3152 28.0811C54.3152 27.9254 54.3668 27.8216 54.3668 27.7177V27.6658C54.3668 27.6139 54.3668 27.6139 54.3668 27.562C54.3668 27.4582 54.3668 27.3544 54.3668 27.1987C54.3668 27.1468 54.3668 27.043 54.3668 26.9911C54.3668 26.9392 54.3668 26.8873 54.3668 26.8353C54.3668 26.7834 54.3668 26.7315 54.3668 26.6796C54.3668 26.6796 54.3668 26.6796 54.3668 26.6277C54.4185 26.1606 54.4185 25.7972 54.3668 25.4339C54.3668 25.382 54.3668 25.2782 54.3668 25.2263C54.3668 24.9667 54.3152 24.6553 54.2636 24.292C54.1603 23.4615 54.0054 22.5791 53.7989 21.6967C53.7473 21.489 53.6956 21.2295 53.644 21.0219C53.3342 19.9838 53.0245 18.9976 52.6114 17.9594C52.5081 17.7518 52.4049 17.4923 52.3016 17.2847C52.25 17.1289 52.1467 16.9732 52.0951 16.8175C51.9402 16.4023 51.7337 15.987 51.5272 15.5718C51.4755 15.5199 51.4239 15.4679 51.4239 15.3641C51.1658 14.9489 50.9592 14.5336 50.7011 14.1184C50.6494 13.9627 50.5978 13.8589 50.4946 13.7551C50.288 13.2879 50.0815 12.9765 50.0299 12.9246C49.9782 12.9246 49.9782 12.9246 49.9782 12.9246C49.9782 12.8727 49.9782 12.8727 49.9782 12.8727C50.0299 12.8727 50.2364 12.8207 50.4946 12.7688C55.5027 11.6788 61.0788 11.4193 66.0353 12.0422C66.3967 12.0941 67.5326 12.2498 67.5326 12.2498C67.5326 12.2498 67.7907 14.0665 67.894 14.8451Z" fill="#6EB800"/>
<path d="M54.3668 25.4339C54.3668 25.7973 54.4184 26.2644 54.3668 26.6797C54.3668 26.7316 54.3668 26.7835 54.3668 26.8354C54.3668 26.8873 54.3668 26.9392 54.3668 26.9911C54.3668 27.0949 54.3668 27.1468 54.3668 27.1987C54.3668 27.3544 54.3668 27.4582 54.3668 27.5621C54.3668 27.614 54.3668 27.614 54.3668 27.6659C54.3668 27.8216 54.3152 27.9254 54.3152 28.0811C54.3152 28.2368 54.2635 28.3926 54.2635 28.5483C54.2635 28.704 54.2119 28.8597 54.2119 28.9635C54.2119 29.0154 54.1603 29.0673 54.1603 29.0673C54.1086 29.3788 54.057 29.6902 54.0054 29.9497C54.0054 30.0535 53.9537 30.2093 53.9021 30.3131C53.9021 30.365 53.9021 30.4688 53.8505 30.5207C53.8505 30.6245 53.7988 30.7283 53.7988 30.8321C53.7988 30.8321 53.7988 30.8321 53.7472 30.884C53.7472 30.9879 53.6956 31.0917 53.6956 31.1955C53.6439 31.2474 53.6439 31.2993 53.6439 31.3512C53.5923 31.455 53.5407 31.5588 53.489 31.6626C53.489 31.7664 53.4374 31.8703 53.3858 31.9741C53.2309 32.4412 53.0244 32.8565 52.8178 33.3236C52.663 33.5831 52.5081 33.8427 52.3532 34.1022C52.2499 34.3098 52.1467 34.4655 52.0434 34.6213C52.0434 34.6732 52.0434 34.6732 52.0434 34.6732C51.7852 35.0884 51.4755 35.5037 51.114 35.9189C51.0108 36.0746 50.9592 36.1784 50.8559 36.2823C50.8043 36.3342 50.7526 36.3342 50.7526 36.3861C50.4945 36.6975 50.2363 36.957 49.9265 37.2685C49.6168 37.5799 49.307 37.8394 49.0488 38.099C48.9456 38.1509 48.8939 38.2028 48.8423 38.2547C48.739 38.3585 48.6358 38.4623 48.5325 38.5142C48.326 38.6699 48.1195 38.8257 47.913 38.9814C47.8097 39.0852 47.7064 39.1371 47.6032 39.2409C47.3966 39.3447 47.1901 39.4485 47.1901 39.5004C47.1385 39.5004 47.1385 39.5004 47.1385 39.5004C47.1385 35.7632 47.1385 35.7632 47.1385 35.7632C47.1385 32.026 47.1385 32.026 47.1385 32.026C47.2418 31.9741 47.2418 31.9741 47.2418 31.9741C48.739 31.5588 49.9265 30.6764 50.701 29.3269C51.0624 28.704 51.3722 27.8216 51.4238 27.043C51.4755 26.7316 51.4755 26.1087 51.4238 25.8492C51.3206 24.4996 50.701 23.2539 49.7716 22.3715C48.8423 21.4372 47.7581 20.9181 46.4673 20.7105C46.1575 20.7105 45.3314 20.7105 45.0216 20.7624C44.6602 20.8143 44.2988 20.8662 44.0407 20.97C43.9374 21.0219 43.8341 21.0219 43.8341 21.0219C43.8341 21.0219 43.7825 20.97 43.7309 20.8662C43.2146 19.7762 42.1303 18.79 40.9945 18.2709C40.5298 18.0633 39.9102 17.8557 39.4972 17.8037C39.239 17.7518 39.1358 17.8037 39.2907 17.648C39.3423 17.648 39.3939 17.5961 39.4972 17.4923C40.1168 17.0252 40.788 16.6099 41.5108 16.1947C41.7689 16.0389 42.0787 15.8832 42.3369 15.7275C42.6467 15.5718 43.0081 15.3642 43.3695 15.2085C43.7309 15.0527 44.0923 14.8451 44.4537 14.6894C44.8151 14.5337 45.2282 14.378 45.5896 14.2222C45.951 14.1184 46.2608 14.0146 46.6222 13.8589C47.0869 13.7032 47.5515 13.5994 47.9646 13.4436C48.8939 13.1841 49.8749 12.9246 49.9782 12.9246C49.9782 12.9246 49.9782 12.9246 50.0298 12.9246C50.0298 12.9765 50.1847 13.1841 50.288 13.3917C50.3912 13.4956 50.4428 13.6513 50.4945 13.7551C50.5977 13.8589 50.6494 13.9627 50.701 14.1184C50.9592 14.5337 51.2173 15.0008 51.4238 15.3642C51.4238 15.468 51.4755 15.5199 51.5271 15.5718C51.7336 15.987 51.9401 16.4023 52.095 16.8175C52.1467 16.9733 52.2499 17.129 52.3015 17.2847C52.4048 17.4923 52.5081 17.7518 52.6113 17.9595C53.0244 18.9976 53.3342 19.9838 53.6439 21.0219C53.6956 21.2295 53.7472 21.4891 53.7988 21.6967C54.1086 22.8905 54.2635 24.0325 54.3668 25.2263C54.3668 25.2782 54.3668 25.382 54.3668 25.4339Z" fill="#479A11"/>
<path d="M52.8178 33.3236C53.0244 32.8565 53.2309 32.4412 53.3858 31.9741C53.1276 32.7007 52.7662 33.4274 52.3531 34.1022C52.508 33.8427 52.6629 33.5831 52.8178 33.3236Z" fill="#479A11"/>
<path d="M51.4238 25.8491C51.4755 26.1087 51.4755 26.7315 51.4238 27.043C51.3722 27.8216 51.0624 28.704 50.701 29.3268C49.9265 30.6764 48.739 31.5588 47.2418 31.974C47.1385 32.026 47.1385 32.026 47.1385 32.026C47.1385 35.7632 47.1385 35.7632 47.1385 35.7632C47.1385 39.5004 47.1385 39.5004 47.1385 39.5004C47.1901 39.5004 47.1901 39.5004 47.1901 39.5004C47.1385 39.5004 47.1385 39.5004 47.1385 39.5004C47.1385 41.4728 47.1385 41.4728 47.1385 41.4728C47.1385 43.601 47.1385 43.6529 47.2418 44.12C47.4999 45.0543 48.0162 45.781 48.8939 46.4039C49.307 46.7153 49.8749 46.923 50.3912 47.0268C26.4863 47.0268 26.4863 47.0268 26.4863 47.0268C26.7445 47.0268 26.951 46.9749 27.2092 46.871C27.6738 46.7153 28.0869 46.5077 28.4483 46.1963C29.2227 45.5734 29.6874 44.8467 29.8939 43.9124C29.9456 43.601 29.9456 43.601 29.9456 43.601C29.9456 41.8362 29.9456 41.8362 29.9456 41.8362C29.9456 40.0714 29.9456 40.0714 29.9456 40.0714C29.9456 37.1646 29.9456 37.1646 29.9456 37.1646C29.9456 34.3098 29.9456 34.3098 29.9456 34.3098C30.4102 33.8427 30.4102 33.8427 30.4102 33.8427C31.288 32.9603 32.2173 32.2336 33.2499 31.6107C35.2635 30.365 37.7934 29.6383 40.1168 29.5864C40.3749 29.5864 40.5814 29.5345 40.5814 29.5345C40.5298 29.5345 40.0135 29.4307 39.6005 29.3787C39.2907 29.3787 37.9483 29.3787 37.5869 29.3787C36.2445 29.5345 35.0054 29.8978 33.5597 30.5726C33.3015 30.6764 32.7336 30.9359 32.2173 31.1955C30.5651 32.026 30.307 32.1817 29.7907 32.3893C28.2418 33.0122 27.1059 32.9603 25.97 32.1817C25.8151 32.0779 25.5054 31.7664 25.3505 31.5588C24.7309 30.7283 24.5244 29.5864 24.7825 28.3925C24.989 27.3544 25.557 26.472 26.4863 25.901C26.6412 25.7972 27.0026 25.6415 27.1575 25.5896C27.2092 25.5377 27.2092 25.5377 27.2092 25.5377C27.1575 25.382 27.1575 25.382 27.1575 25.382C27.1059 25.0187 27.0543 24.5515 27.1059 24.1882C27.1575 23.3577 27.4157 22.6829 27.8287 22.0081C28.1901 21.541 28.7581 21.0219 29.326 20.6586C30.5135 19.9838 32.0108 19.88 33.3015 20.5028C33.5081 20.6066 33.5081 20.6066 33.5081 20.6066C33.7146 20.2952 33.7146 20.2952 33.7146 20.2952C34.4374 19.2052 35.5217 18.4266 36.864 17.9594C37.1222 17.9075 37.1222 17.9075 37.1222 17.9075C37.3287 17.8556 37.3287 17.8556 37.3287 17.8556C37.7418 17.7518 37.9999 17.7518 38.4646 17.7518C38.7227 17.7518 38.9809 17.7518 39.0325 17.7518C39.1874 17.7518 39.1874 17.7518 39.1874 17.7518C39.2907 17.648 39.2907 17.648 39.2907 17.648C39.1358 17.8037 39.239 17.7518 39.4972 17.8037C39.9102 17.8556 40.5298 18.0633 40.9945 18.2709C42.1303 18.7899 43.2146 19.7762 43.7309 20.8662C43.7825 20.97 43.8341 21.0219 43.8341 21.0219C43.8341 21.0219 43.9374 21.0219 44.0407 20.97C44.2988 20.8662 44.6602 20.8143 45.0216 20.7624C45.3314 20.7105 46.1575 20.7105 46.4673 20.7105C47.7581 20.9181 48.8423 21.4371 49.7717 22.3714C50.701 23.2539 51.3206 24.4996 51.4238 25.8491Z" fill="white"/>
<path d="M50.4945 13.7551C50.4428 13.6512 50.3912 13.4955 50.288 13.3917C50.1847 13.1841 50.0298 12.9765 50.0298 12.9246C50.0814 12.9765 50.2879 13.2879 50.4945 13.7551Z" fill="#479A11"/>
<path d="M50.7526 36.386C50.1847 37.0089 49.6168 37.5799 49.0488 38.0989C49.307 37.8394 49.6168 37.5799 49.9265 37.2684C50.2363 36.957 50.4945 36.6975 50.7526 36.386Z" fill="#479A11"/>
<path d="M49.9781 12.8727C49.9781 12.9246 49.9781 12.9246 49.9781 12.9246C49.8749 12.9246 48.8939 13.1841 47.9646 13.4436C47.5515 13.5993 47.0868 13.7032 46.6222 13.8589C46.2608 14.0146 45.951 14.1184 45.5896 14.2222C45.2281 14.3779 44.8151 14.5337 44.4537 14.6894C44.0923 14.8451 43.7309 15.0527 43.3694 15.2084C43.008 15.3642 42.6466 15.5718 42.3368 15.7275C42.0787 15.8832 41.7689 16.0389 41.5107 16.1946C40.7879 16.6099 40.1167 17.0251 39.4972 17.4923C39.3939 17.5961 39.3423 17.648 39.2906 17.648C39.1874 17.7518 39.1874 17.7518 39.1874 17.7518C39.0325 17.7518 39.0325 17.7518 39.0325 17.7518C38.9809 17.7518 38.7227 17.7518 38.4646 17.7518C37.9999 17.7518 37.7417 17.7518 37.3287 17.8556C37.1222 17.9075 37.1222 17.9075 37.1222 17.9075C36.8124 17.648 36.8124 17.648 36.8124 17.648C36.7091 17.5442 36.6059 17.4923 36.451 17.3885C36.3993 17.3366 36.3477 17.3366 36.2961 17.2847C35.9863 17.0251 35.6765 16.8175 35.3151 16.6099C35.2118 16.558 35.057 16.4542 34.9537 16.4023C34.9021 16.3504 34.8504 16.2985 34.7988 16.2985C34.6439 16.1947 34.489 16.1427 34.3341 16.0389C34.076 15.8832 33.7662 15.7275 33.4564 15.5718C33.3531 15.5199 33.2499 15.468 33.1466 15.4161C32.8368 15.2603 32.5271 15.1046 32.1656 14.9489C31.9591 14.8451 31.7526 14.7413 31.5461 14.6894C30.9265 14.3779 30.2553 14.1184 29.5325 13.9108L29.4809 13.8589C29.2743 13.807 29.0678 13.7551 28.9129 13.7032C28.8097 13.6513 28.758 13.6513 28.6548 13.5994C28.5515 13.5474 28.3966 13.4955 28.2417 13.4955C28.1385 13.4436 27.9836 13.3917 27.8287 13.3398C27.7771 13.3398 27.7771 13.3398 27.7254 13.2879C27.5705 13.2879 27.4156 13.236 27.3124 13.1841C27.2607 13.1841 27.2091 13.1841 27.1575 13.1841C27.0542 13.1322 26.8993 13.0803 26.7961 13.0803C26.6928 13.0284 26.6412 13.0284 26.5379 13.0284C26.5379 12.9765 26.4863 12.9765 26.4863 12.9765C26.3314 12.9765 26.2281 12.9246 26.1765 12.9246H26.1249C26.1249 12.8727 26.1249 12.8727 26.1249 12.8727C26.1249 12.8727 26.2281 12.717 26.3314 12.5093C27.7254 10.3293 29.3776 8.14924 31.3396 5.96919C31.8559 5.39822 33.508 3.78913 34.076 3.27007C35.3151 2.12814 36.451 1.14193 37.6385 0.311436C37.9999 1.05239e-07 38.0515 0 38.1031 0C38.2064 0.0519033 39.239 0.830495 39.7037 1.19384C41.0461 2.28386 42.1819 3.32198 43.5243 4.72344C45.951 7.16302 48.0162 9.75831 49.7716 12.5093C49.8749 12.717 49.9781 12.8727 49.9781 12.8727Z" fill="#6EB800"/>
<path d="M39.6005 29.3787C40.0135 29.4307 40.5298 29.5345 40.5814 29.5345C40.5814 29.5345 40.3749 29.5864 40.1168 29.5864C37.7934 29.6383 35.2635 30.365 33.2499 31.6107C32.2173 32.2336 31.288 32.9603 30.4103 33.8427C29.9456 34.3098 29.9456 34.3098 29.9456 34.3098C29.9456 37.1646 29.9456 37.1646 29.9456 37.1646C29.9456 40.0714 29.9456 40.0714 29.9456 40.0714C29.6358 39.9156 29.6358 39.9156 29.6358 39.9156C29.5842 39.8637 29.5325 39.8637 29.4293 39.8118C29.3776 39.7599 29.2744 39.708 29.1711 39.6561C28.9646 39.5004 28.7581 39.3966 28.5516 39.2409C28.5516 39.2409 28.4999 39.189 28.4483 39.189C28.345 39.1371 28.2418 39.0332 28.1385 38.9813C28.0869 38.9294 27.9836 38.8775 27.932 38.7737C27.8287 38.7218 27.7255 38.618 27.6222 38.5661C27.5706 38.5142 27.519 38.5142 27.4673 38.4623C27.4157 38.4104 27.3641 38.3585 27.3124 38.3066C27.2608 38.3066 27.2092 38.2547 27.1575 38.2027C27.1059 38.1508 27.0543 38.0989 27.0026 38.047C26.8478 37.9432 26.7445 37.7875 26.5896 37.6837C26.538 37.6318 26.4863 37.5799 26.4347 37.528C26.3831 37.4761 26.3314 37.4242 26.2798 37.4242C26.1249 37.2165 25.97 37.0608 25.8151 36.9051C25.7635 36.8532 25.7635 36.8532 25.7119 36.8013C25.6602 36.7494 25.6086 36.6975 25.557 36.6456C25.4537 36.5418 25.3505 36.4379 25.2988 36.3341C24.8858 35.867 24.576 35.3998 24.2146 34.8808C24.163 34.8289 24.1113 34.777 24.1113 34.6731C24.0597 34.6212 24.0081 34.5174 23.9564 34.4655C23.9048 34.3617 23.8532 34.3098 23.8016 34.206C23.6983 34.1022 23.6467 33.9465 23.5434 33.7907C23.4401 33.5831 23.3369 33.3755 23.2336 33.1679C23.182 33.0641 23.1304 32.9602 23.1304 32.9083C23.1304 32.9083 23.1304 32.9083 23.0787 32.9083C23.0271 32.7526 22.9755 32.5969 22.9238 32.4412C22.8206 32.2336 22.7689 32.0778 22.7173 31.9221C22.6657 31.8183 22.6141 31.7664 22.6141 31.6626C22.6141 31.6626 22.6141 31.6626 22.6141 31.6107C22.5624 31.455 22.5108 31.2993 22.4592 31.1435C22.2526 30.5726 22.0978 29.9497 21.9945 29.2749C21.9429 29.1711 21.9429 29.0673 21.9429 28.9635C21.8396 28.6001 21.8396 28.2368 21.788 27.8735V27.8216C21.7363 27.4063 21.7363 26.9911 21.7363 26.5239V26.472C21.7363 26.4201 21.7363 26.3163 21.7363 26.2644C21.7363 26.1087 21.7363 26.0048 21.7363 25.8491C21.7363 25.7972 21.7363 25.7453 21.7363 25.6934C21.7363 25.5896 21.7363 25.4858 21.7363 25.382C21.788 24.811 21.8396 24.24 21.9429 23.6691C21.9945 23.3057 22.0461 22.9424 22.0977 22.5791C22.201 22.2157 22.2526 21.8005 22.3559 21.4371C22.4075 21.2814 22.4592 21.0738 22.5108 20.8662C22.5624 20.7104 22.614 20.5028 22.6657 20.3471C22.7173 20.1395 22.8206 19.9319 22.8722 19.7761C22.9238 19.5685 22.9755 19.3609 23.0787 19.2052C23.0787 19.1533 23.0787 19.1533 23.0787 19.1533C23.1304 18.9976 23.182 18.7899 23.2336 18.6342C23.2852 18.6342 23.2852 18.5823 23.2852 18.5304C23.3369 18.4266 23.3885 18.2709 23.4401 18.1151C23.4918 18.0632 23.4918 18.0113 23.5434 17.9594C23.595 17.7518 23.6467 17.5961 23.7499 17.4404C23.8016 17.2847 23.8532 17.1808 23.9048 17.0251C23.9048 17.0251 23.9048 16.9732 23.9564 16.9732C23.9564 16.8694 24.0081 16.8175 24.0597 16.7137C24.1113 16.6099 24.163 16.5061 24.2146 16.4023C24.2146 16.2984 24.2662 16.2465 24.3179 16.1427C24.4728 15.7794 24.6793 15.416 24.8342 15.0527C24.9374 14.897 25.0407 14.7413 25.1439 14.5855C25.5054 13.8589 26.0733 12.9246 26.1249 12.9246H26.1766C26.2282 12.9246 26.3314 12.9765 26.4863 12.9765C26.4863 12.9765 26.538 12.9765 26.538 13.0284C26.6412 13.0284 26.6929 13.0284 26.7961 13.0803C26.8994 13.0803 27.0543 13.1322 27.1575 13.1841C27.2092 13.1841 27.2608 13.1841 27.3124 13.1841C27.4157 13.236 27.5706 13.2879 27.7255 13.2879C27.7771 13.3398 27.7771 13.3398 27.8287 13.3398C27.9836 13.3917 28.1385 13.4436 28.2418 13.4955C28.3967 13.4955 28.5516 13.5474 28.6548 13.5993C28.7581 13.6512 28.8097 13.6512 28.913 13.7031C29.0679 13.755 29.2744 13.8069 29.4809 13.8589L29.5325 13.9108C30.2554 14.1184 30.9266 14.3779 31.5461 14.6894C31.7527 14.7413 31.9592 14.8451 32.1657 14.9489C32.5271 15.1046 32.8369 15.2603 33.1467 15.416C33.2499 15.4679 33.3532 15.5198 33.4565 15.5718C33.7662 15.7275 34.076 15.8832 34.3342 16.0389C34.4891 16.1427 34.644 16.1946 34.7988 16.2984C34.8505 16.2984 34.9021 16.3503 34.9537 16.4022C35.057 16.4542 35.2119 16.558 35.3152 16.6099C35.6766 16.8175 35.9864 17.0251 36.2961 17.2846C36.3478 17.3366 36.3994 17.3365 36.451 17.3885C36.6059 17.4923 36.7092 17.5442 36.8124 17.648C37.1222 17.9075 37.1222 17.9075 37.1222 17.9075C36.8641 17.9594 36.8641 17.9594 36.8641 17.9594C35.5217 18.4266 34.4374 19.2052 33.7146 20.2952C33.5081 20.6066 33.5081 20.6066 33.5081 20.6066C33.3016 20.5028 33.3016 20.5028 33.3016 20.5028C32.0108 19.8799 30.5135 19.9838 29.326 20.6585C28.7581 21.0219 28.1901 21.5409 27.8287 22.0081C27.4157 22.6829 27.1575 23.3576 27.1059 24.1881C27.0543 24.5515 27.1059 25.0186 27.1575 25.382C27.2092 25.5377 27.2092 25.5377 27.2092 25.5377C27.1575 25.5896 27.1575 25.5896 27.1575 25.5896C27.0027 25.6415 26.6412 25.7972 26.4863 25.901C25.557 26.472 24.9891 27.3544 24.7825 28.3925C24.5244 29.5864 24.7309 30.7283 25.3505 31.5588C25.5054 31.7664 25.8152 32.0778 25.97 32.1816C27.1059 32.9602 28.2418 33.0121 29.7907 32.3893C30.307 32.1816 30.5652 32.0259 32.2173 31.1954C32.7336 30.9359 33.3016 30.6764 33.5597 30.5726C35.0054 29.8978 36.2445 29.5344 37.5869 29.3787C37.9483 29.3787 39.2907 29.3787 39.6005 29.3787Z" fill="#479A11"/>
<path d="M29.9456 40.0714C29.9456 41.8362 29.9456 41.8362 29.9456 41.8362C29.9456 43.601 29.9456 43.601 29.9456 43.601C29.894 43.9124 29.894 43.9124 29.894 43.9124C29.6874 44.8467 29.2228 45.5734 28.4483 46.1963C28.0869 46.5077 27.6739 46.7153 27.2092 46.8711C26.951 46.9749 26.7445 47.0268 26.4864 47.0268C25.557 47.0268 25.557 47.0268 25.557 47.0268C22.769 46.8711 20.2907 46.0406 18.0706 44.5872C15.7472 43.03 13.7853 40.85 12.1847 37.8913C11.9266 37.4242 11.3586 36.3342 11.1521 35.8151C10.0679 33.3236 9.24179 30.5207 8.67386 27.4582C7.95103 23.1501 7.79614 18.4785 8.31244 14.2222C8.36407 13.5475 8.57059 12.2498 8.57059 12.2498C8.57059 12.2498 9.75809 12.0422 10.0679 12.0422C15.076 11.4193 20.6005 11.6788 25.6086 12.7689C25.8668 12.8208 26.0733 12.8727 26.1249 12.8727C26.1249 12.9246 26.1249 12.9246 26.1249 12.9246C26.0733 12.9246 25.5054 13.8589 25.144 14.5856C25.0407 14.7413 24.9374 14.897 24.8342 15.0527C24.6793 15.4161 24.4728 15.7794 24.3179 16.1428C24.2662 16.2466 24.2146 16.2985 24.2146 16.4023C24.163 16.5061 24.1114 16.6099 24.0597 16.7137C24.0081 16.8175 23.9565 16.8694 23.9565 16.9732C23.9048 16.9732 23.9048 17.0252 23.9048 17.0252C23.8532 17.1809 23.8016 17.2847 23.7499 17.4404C23.6467 17.5961 23.595 17.7518 23.5434 17.9595C23.4918 18.0114 23.4918 18.0633 23.4402 18.1152C23.3885 18.2709 23.3369 18.4266 23.2853 18.5304C23.2853 18.5823 23.2853 18.6342 23.2336 18.6342C23.182 18.79 23.1304 18.9976 23.0787 19.1533C23.0787 19.1533 23.0787 19.1533 23.0787 19.2052C22.9755 19.3609 22.9238 19.5685 22.8722 19.7762C22.8206 19.9319 22.7173 20.1395 22.6657 20.3471C22.6141 20.5028 22.5624 20.7105 22.5108 20.8662C22.4592 21.0738 22.4075 21.2814 22.3559 21.4372C22.2526 21.8524 22.201 22.2157 22.0978 22.5791C21.9945 23.0981 21.9429 23.6172 21.8396 24.1363C21.8396 24.292 21.8396 24.3958 21.8396 24.4477C21.788 24.7072 21.788 25.0187 21.7364 25.382C21.7364 25.4858 21.7364 25.5896 21.7364 25.6934C21.7364 25.7453 21.7364 25.7972 21.7364 25.8492C21.7364 26.0049 21.7364 26.1087 21.7364 26.2644C21.7364 26.3163 21.7364 26.4201 21.7364 26.472V26.5239C21.7364 26.8354 21.7364 27.1468 21.7364 27.3544C21.7364 27.4582 21.788 27.6659 21.788 27.8216V27.8735C21.788 28.0811 21.8396 28.2368 21.8396 28.2887C21.8396 28.3406 21.8396 28.3926 21.8396 28.4445C21.8913 28.6002 21.8913 28.8078 21.9429 28.9635C21.9429 29.0673 21.9429 29.1711 21.9945 29.275C22.0978 29.8978 22.2527 30.5207 22.4592 31.1436C22.4592 31.2993 22.5624 31.455 22.6141 31.6107C22.6141 31.6626 22.6141 31.6626 22.6141 31.6626C22.6141 31.7664 22.6657 31.8183 22.7173 31.9222C22.769 32.0779 22.8206 32.2336 22.9239 32.4412C22.9239 32.4931 22.9755 32.5969 23.0271 32.6488C23.0271 32.7527 23.0788 32.8046 23.0788 32.9084C23.1304 32.9084 23.1304 32.9084 23.1304 32.9084C23.1304 32.9603 23.182 33.0641 23.2337 33.1679C23.3369 33.3755 23.4402 33.5831 23.5434 33.7908C23.6467 33.9465 23.6983 34.1022 23.8016 34.206C23.8532 34.3098 23.9048 34.3617 23.9565 34.4656C24.0081 34.5175 24.0597 34.6213 24.1114 34.6732C24.1114 34.7251 24.163 34.777 24.163 34.8289C24.2146 34.8289 24.2146 34.8808 24.2146 34.8808C24.576 35.3999 24.8858 35.867 25.2989 36.3342C25.3505 36.438 25.4538 36.5418 25.557 36.6456C25.6087 36.6975 25.6603 36.7494 25.7119 36.8013C25.7635 36.8532 25.7635 36.8532 25.8152 36.9051C26.0217 37.1128 26.2282 37.3204 26.4347 37.528C26.4864 37.5799 26.538 37.6318 26.5896 37.6837C26.7445 37.7875 26.8478 37.9432 27.0027 38.0471C27.0543 38.099 27.1059 38.1509 27.1576 38.2028C27.2092 38.2547 27.2608 38.3066 27.3125 38.3066C27.4157 38.4104 27.519 38.5142 27.6222 38.5661C27.7255 38.618 27.8288 38.7218 27.932 38.7737C27.9837 38.8776 28.0869 38.9295 28.1385 38.9814C28.2418 39.0333 28.3451 39.1371 28.4483 39.189C28.5 39.189 28.5516 39.2409 28.5516 39.2409C28.8097 39.3966 28.9646 39.5004 29.1712 39.6561C29.2744 39.7081 29.3777 39.76 29.4293 39.8119C29.5326 39.8638 29.5842 39.8638 29.6358 39.9157C29.9456 40.0714 29.9456 40.0714 29.9456 40.0714Z" fill="#6EB800"/>
<path d="M29.1711 39.6561C28.9646 39.5004 28.8097 39.3966 28.5515 39.2409C28.758 39.3966 28.9646 39.5004 29.1711 39.6561Z" fill="#479A11"/>
<path d="M27.4674 38.4623C27.519 38.5142 27.5706 38.5142 27.6223 38.5661C27.519 38.5142 27.4158 38.4104 27.3125 38.3066C27.3641 38.3585 27.4158 38.4104 27.4674 38.4623Z" fill="#479A11"/>
<path d="M25.557 47.0268C26.4864 47.0268 26.4864 47.0268 26.4864 47.0268C26.2282 47.0787 25.97 47.0787 25.557 47.0268Z" fill="#6EB800"/>
<path d="M24.1113 34.6732C24.1113 34.777 24.163 34.8289 24.2146 34.8808C24.2146 34.8808 24.2146 34.8289 24.163 34.8289C24.163 34.777 24.1113 34.7251 24.1113 34.6732Z" fill="#479A11"/>
<path d="M22.4592 31.1436C22.5109 31.2993 22.5625 31.455 22.6141 31.6107C22.5625 31.455 22.4592 31.2993 22.4592 31.1436Z" fill="#479A11"/>
<path d="M21.9945 29.2749C22.0978 29.9497 22.2527 30.5726 22.4592 31.1435C22.2527 30.5207 22.0978 29.8978 21.9945 29.2749Z" fill="#479A11"/>
<path d="M66.1902 23.5653C66.0869 25.7453 65.7772 27.7697 65.2092 29.8459C65.0543 30.365 64.6413 31.5069 64.4348 32.026C63.9185 33.4793 63.144 35.0365 62.3695 36.3342C61.3886 37.9952 60.1494 39.6561 58.807 41.0576C58.394 41.5248 57.5163 42.3552 57.2065 42.6667C57.0516 42.7705 56.8967 42.9262 56.8451 42.9781C56.7935 43.03 56.7935 43.03 56.7935 43.03C56.7935 43.03 56.8967 42.8743 57.0516 42.6667C62.163 36.1265 65.2608 28.4445 66.0869 20.3471C66.0869 20.1395 66.1386 19.9838 66.1386 19.9838C66.1386 19.9838 66.1386 20.1914 66.1902 20.6067C66.2418 21.1257 66.2418 22.9424 66.1902 23.5653Z" fill="white"/>
</g>
<defs>
<clipPath id="clip0_9_259">
<rect width="76" height="64" fill="white"/>
</clipPath>
</defs>
</svg>
